<svg width="20" height="21" viewBox="0 0 20 21" fill="none" xmlns="http://www.w3.org/2000/svg">
<path d="M19.6211 7.54333C19.7734 7.42224 20 7.53552 20 7.72693V15.7152C20 16.7504 19.1602 17.5902 18.125 17.5902H1.875C0.839844 17.5902 0 16.7504 0 15.7152V7.73083C0 7.53552 0.222656 7.42615 0.378906 7.54724C1.25391 8.22693 2.41406 9.09021 6.39844 11.9847C7.22266 12.5863 8.61328 13.8519 10 13.8441C11.3945 13.8558 12.8125 12.5629 13.6055 11.9847C17.5898 9.09021 18.7461 8.22302 19.6211 7.54333ZM10 12.5902C10.9062 12.6058 12.2109 11.4496 12.8672 10.973C18.0508 7.2113 18.4453 6.88318 19.6406 5.94568C19.8672 5.7699 20 5.49646 20 5.2074V4.46521C20 3.43005 19.1602 2.59021 18.125 2.59021H1.875C0.839844 2.59021 0 3.43005 0 4.46521V5.2074C0 5.49646 0.132812 5.76599 0.359375 5.94568C1.55469 6.87927 1.94922 7.2113 7.13281 10.973C7.78906 11.4496 9.09375 12.6058 10 12.5902Z" fill="black"/>
</svg>
