<svg width="20" height="21" viewBox="0 0 20 21" fill="none" xmlns="http://www.w3.org/2000/svg">
<g clip-path="url(#clip0_121_71)">
<path d="M9.22922 19.6867C3.55352 11.4586 2.5 10.6142 2.5 7.59021C2.5 3.44806 5.85785 0.09021 10 0.09021C14.1421 0.09021 17.5 3.44806 17.5 7.59021C17.5 10.6142 16.4465 11.4586 10.7708 19.6867C10.3983 20.2247 9.60164 20.2247 9.22922 19.6867ZM10 10.7152C11.7259 10.7152 13.125 9.31611 13.125 7.59021C13.125 5.86431 11.7259 4.46521 10 4.46521C8.2741 4.46521 6.875 5.86431 6.875 7.59021C6.875 9.31611 8.2741 10.7152 10 10.7152Z" fill="#2A2A2A"/>
</g>
<defs>
<clipPath id="clip0_121_71">
<rect width="20" height="20" fill="white" transform="translate(0 0.09021)"/>
</clipPath>
</defs>
</svg>
