<svg width="20" height="21" viewBox="0 0 20 21" fill="none" xmlns="http://www.w3.org/2000/svg">
<g clip-path="url(#clip0_121_78)">
<path d="M19.4293 14.2232L15.0543 12.3482C14.8674 12.2685 14.6597 12.2517 14.4624 12.3003C14.2652 12.3489 14.089 12.4603 13.9605 12.6177L12.023 14.9849C8.98232 13.5512 6.53524 11.1041 5.10156 8.06339L7.46875 6.12589C7.62644 5.99764 7.73804 5.82151 7.78668 5.62415C7.83531 5.4268 7.81832 5.21898 7.73828 5.03214L5.86328 0.657141C5.77543 0.455738 5.62007 0.291299 5.42397 0.192179C5.22787 0.0930596 5.00332 0.0654715 4.78906 0.114172L0.726562 1.05167C0.519988 1.09937 0.335682 1.21569 0.203725 1.38163C0.0717677 1.54757 -4.75863e-05 1.75333 2.36571e-08 1.96534C2.36571e-08 11.9849 8.12109 20.0903 18.125 20.0903C18.3371 20.0905 18.5429 20.0187 18.709 19.8867C18.875 19.7548 18.9913 19.5704 19.0391 19.3638L19.9766 15.3013C20.025 15.086 19.9968 14.8605 19.8969 14.6638C19.797 14.467 19.6317 14.3112 19.4293 14.2232Z" fill="black"/>
</g>
<defs>
<clipPath id="clip0_121_78">
<rect width="20" height="20" fill="white" transform="translate(0 0.09021)"/>
</clipPath>
</defs>
</svg>
